# xmcd CD database file
#
# Track frame offsets:
#	150
#	1427
#	19828
#	35835
#	49272
#	66201
#	86109
#	105675
#	121920
#	138415
#	159251
#
# Disc length: 2341 seconds
#
# Revision: 0
# Processed by: cddbd v1.4b41PL1 Copyright (c) Steve Scherf et al.
# Submitted via: Feurio! 1.60.3ß - http://www.feurio.com
#
DISCID=9109230b
DTITLE=Various Artist - KARAOKE - Deutsche Klassiker Vol.5
DYEAR=1900
DGENRE=
TTITLE0=??? - Datentrack
TTITLE1=STS - Fürstenfeld
TTITLE2=Nena - Nur Geträumt
TTITLE3=Markus  - Ich Will Spaß
TTITLE4=Falco - Der Komissar
TTITLE5=Peter Cornelius - Reif Für Die Insel
TTITLE6=Die Fantastischen Vier - Die Da??
TTITLE7=Trio - Herz Ist Trumpf
TTITLE8=Die Prinzen - Bombe
TTITLE9=EAV - An Der Copacabana
TTITLE10=Münchner Freiheit - Tausend Mal Du
EXTD=
EXTT0=
EXTT1=
EXTT2=
EXTT3=
EXTT4=
EXTT5=
EXTT6=
EXTT7=
EXTT8=
EXTT9=
EXTT10=
PLAYORDER=
